<svg xmlns="http://www.w3.org/2000/svg" style="display:none;">
	<defs>
		<symbol id='arrow' viewBox='0 0 18 11'>
			<path d="M12.3594 10.6094C12.1406 10.3906 12.1406 10.1719 12.3594 9.95312L16.0234 5.90625H0.4375C0.145833 5.90625 0 5.76042 0 5.46875C0 5.17708 0.145833 5.03125 0.4375 5.03125H16.0234L12.3594 0.984375C12.1406 0.765625 12.1406 0.546875 12.3594 0.328125C12.5781 0.109375 12.7969 0.109375 13.0156 0.328125C15.8958 3.5 17.3542 5.10417 17.3906 5.14062C17.4635 5.21354 17.5 5.32292 17.5 5.46875C17.5 5.61458 17.4635 5.72396 17.3906 5.79688L13.0156 10.6094C12.9427 10.6823 12.8333 10.7188 12.6875 10.7188C12.5417 10.7188 12.4323 10.6823 12.3594 10.6094Z"  fill='currentColor'   />
		</symbol>
		<symbol id='evenlope' viewBox='0 0 14 11'>
			<path d="M12.6562 0C13.0104 0 13.3229 0.135417 13.5938 0.40625C13.8646 0.677083 14 0.989583 14 1.34375V9.65625C14 10.0104 13.8646 10.3229 13.5938 10.5938C13.3229 10.8646 13.0104 11 12.6562 11H1.34375C0.989583 11 0.677083 10.8646 0.40625 10.5938C0.135417 10.3229 0 10.0104 0 9.65625V1.34375C0 0.989583 0.135417 0.677083 0.40625 0.40625C0.677083 0.135417 0.989583 0 1.34375 0H12.6562ZM12.5 2.84375V1.5L7 5.15625L1.5 1.5V2.84375L7 6.5L12.5 2.84375Z"  fill='currentColor'   />
		</symbol>
		<symbol id='location' viewBox='0 0 9 14'>
			<path d="M1.3125 1.3125C2.1875 0.4375 3.25 0 4.5 0C5.75 0 6.8125 0.4375 7.6875 1.3125C8.5625 2.1875 9 3.25 9 4.5C9 5.54167 8.625 6.85417 7.875 8.4375C7.125 10.0208 6.375 11.3438 5.625 12.4062L4.5 14C4.16667 13.5417 3.75 12.9583 3.25 12.25C2.75 11.5208 2.08333 10.3125 1.25 8.625C0.416667 6.91667 0 5.54167 0 4.5C0 3.25 0.4375 2.1875 1.3125 1.3125ZM3.4375 5.5625C3.72917 5.83333 4.08333 5.96875 4.5 5.96875C4.91667 5.96875 5.26042 5.83333 5.53125 5.5625C5.82292 5.27083 5.96875 4.91667 5.96875 4.5C5.96875 4.08333 5.82292 3.73958 5.53125 3.46875C5.26042 3.17708 4.91667 3.03125 4.5 3.03125C4.08333 3.03125 3.72917 3.17708 3.4375 3.46875C3.16667 3.73958 3.03125 4.08333 3.03125 4.5C3.03125 4.91667 3.16667 5.27083 3.4375 5.5625Z"  fill='currentColor'   />
		</symbol>
		<symbol id='phone' viewBox='0 0 12 11'>
			<path d="M10.75 8C11.375 8.625 11.375 9.3125 10.75 10.0625C10.5 10.3542 10.25 10.5729 10 10.7188C9.77083 10.8646 9.57292 10.9479 9.40625 10.9688C9.26042 10.9896 9.04167 11 8.75 11C7.9375 11 6.96875 10.5833 5.84375 9.75C4.94792 9.10417 4.13542 8.40625 3.40625 7.65625C2.46875 6.67708 1.64583 5.5625 0.9375 4.3125C0.3125 3.14583 0.125 2.1875 0.375 1.4375C0.5 1.04167 0.791667 0.697917 1.25 0.40625L1.28125 0.375C1.65625 0.125 1.98958 0 2.28125 0C2.67708 0 3.03125 0.1875 3.34375 0.5625L3.375 0.59375C3.85417 1.21875 4.1875 1.70833 4.375 2.0625C4.6875 2.70833 4.67708 3.26042 4.34375 3.71875C4.09375 4.05208 3.96875 4.29167 3.96875 4.4375C3.96875 4.5 4.10417 4.6875 4.375 5L4.40625 5.03125C4.90625 5.59375 5.17708 5.89583 5.21875 5.9375C5.23958 5.9375 5.26042 5.94792 5.28125 5.96875C5.30208 5.98958 5.32292 6.01042 5.34375 6.03125L5.40625 6.09375C5.82292 6.51042 6.125 6.80208 6.3125 6.96875L6.34375 7C6.53125 7.16667 6.65625 7.25 6.71875 7.25C6.82292 7.25 7.125 7.09375 7.625 6.78125C7.77083 6.67708 7.94792 6.625 8.15625 6.625C8.53125 6.625 8.97917 6.78125 9.5 7.09375C10.0417 7.40625 10.4583 7.70833 10.75 8Z"  fill='currentColor'   />
		</symbol>
		<symbol id='s_behance' viewBox='0 0 15 9'>
			<path d="M4.06055 0C4.27018 0 4.46615 0.00911458 4.64844 0.0273438C4.83984 0.0455729 5.01758 0.0729167 5.18164 0.109375C5.35482 0.145833 5.50977 0.195964 5.64648 0.259766C5.79232 0.314453 5.92904 0.382812 6.05664 0.464844C6.17513 0.546875 6.27995 0.642578 6.37109 0.751953C6.46224 0.861328 6.54427 0.984375 6.61719 1.12109C6.68099 1.25781 6.72656 1.41276 6.75391 1.58594C6.79036 1.75 6.80859 1.93229 6.80859 2.13281C6.80859 2.35156 6.78581 2.55208 6.74023 2.73438C6.69466 2.91667 6.62174 3.08073 6.52148 3.22656C6.42122 3.36328 6.29818 3.49089 6.15234 3.60938C6.00651 3.72786 5.83789 3.83724 5.64648 3.9375C5.91081 4.01042 6.13867 4.11523 6.33008 4.25195C6.5306 4.37956 6.69466 4.53906 6.82227 4.73047C6.95898 4.92188 7.05924 5.13607 7.12305 5.37305C7.18685 5.60091 7.21875 5.84701 7.21875 6.11133C7.21875 6.33008 7.19596 6.53516 7.15039 6.72656C7.10482 6.91797 7.04102 7.09115 6.95898 7.24609C6.87695 7.41016 6.77669 7.55599 6.6582 7.68359C6.54883 7.8112 6.42122 7.92513 6.27539 8.02539C6.13867 8.12565 5.98828 8.21224 5.82422 8.28516C5.66016 8.35807 5.48698 8.42188 5.30469 8.47656C5.1224 8.52214 4.93555 8.55859 4.74414 8.58594C4.56185 8.60417 4.37044 8.61328 4.16992 8.61328H0V0H4.06055ZM3.81445 3.48633C3.97852 3.48633 4.12891 3.4681 4.26562 3.43164C4.41146 3.38607 4.53906 3.32227 4.64844 3.24023C4.75781 3.1582 4.83984 3.05339 4.89453 2.92578C4.94922 2.79818 4.97656 2.64323 4.97656 2.46094C4.97656 2.36068 4.96745 2.26953 4.94922 2.1875C4.93099 2.10547 4.90365 2.03255 4.86719 1.96875C4.83073 1.90495 4.78516 1.85026 4.73047 1.80469C4.6849 1.75 4.63021 1.70443 4.56641 1.66797C4.51172 1.63151 4.44792 1.59961 4.375 1.57227C4.3112 1.54492 4.23828 1.52669 4.15625 1.51758C4.07422 1.49935 3.99219 1.48568 3.91016 1.47656C3.82812 1.46745 3.74609 1.46289 3.66406 1.46289H1.90039V3.48633H3.81445ZM3.92383 7.15039C4.01497 7.15039 4.10156 7.14583 4.18359 7.13672C4.27474 7.1276 4.36133 7.11393 4.44336 7.0957C4.53451 7.07747 4.61654 7.05469 4.68945 7.02734C4.76237 6.99089 4.83073 6.94987 4.89453 6.9043C4.95833 6.86784 5.01302 6.82227 5.05859 6.76758C5.11328 6.70378 5.16341 6.63542 5.20898 6.5625C5.24544 6.48958 5.27279 6.40755 5.29102 6.31641C5.30924 6.22526 5.31836 6.12044 5.31836 6.00195C5.31836 5.7832 5.28646 5.59635 5.22266 5.44141C5.15885 5.27734 5.06315 5.14974 4.93555 5.05859C4.81706 4.95833 4.67578 4.88542 4.51172 4.83984C4.34766 4.79427 4.16081 4.77148 3.95117 4.77148H1.90039V7.15039H3.92383ZM9.91211 7.12305C10.0397 7.24154 10.1947 7.33268 10.377 7.39648C10.5684 7.46029 10.7826 7.49219 11.0195 7.49219C11.1927 7.49219 11.3522 7.47396 11.498 7.4375C11.653 7.39193 11.7943 7.32357 11.9219 7.23242C12.0404 7.14128 12.1361 7.05013 12.209 6.95898C12.291 6.86784 12.3457 6.77669 12.373 6.68555H13.877C13.7585 7.05924 13.6081 7.38281 13.4258 7.65625C13.2435 7.92057 13.0247 8.13021 12.7695 8.28516C12.5234 8.44922 12.25 8.57227 11.9492 8.6543C11.6484 8.73633 11.3203 8.77734 10.9648 8.77734C10.7188 8.77734 10.4863 8.75911 10.2676 8.72266C10.0488 8.67708 9.83919 8.61784 9.63867 8.54492C9.43815 8.46289 9.2513 8.36719 9.07812 8.25781C8.91406 8.14844 8.76367 8.02083 8.62695 7.875C8.49023 7.72917 8.36719 7.56966 8.25781 7.39648C8.15755 7.22331 8.07096 7.03646 7.99805 6.83594C7.92513 6.63542 7.86589 6.42578 7.82031 6.20703C7.78385 5.97917 7.76562 5.74219 7.76562 5.49609C7.76562 5.26823 7.78385 5.04492 7.82031 4.82617C7.86589 4.60742 7.92513 4.39779 7.99805 4.19727C8.08008 3.99674 8.17122 3.8099 8.27148 3.63672C8.38086 3.46354 8.50846 3.30404 8.6543 3.1582C8.80013 3.01237 8.95508 2.88021 9.11914 2.76172C9.2832 2.64323 9.46549 2.54297 9.66602 2.46094C9.85742 2.37891 10.0625 2.3151 10.2812 2.26953C10.5 2.22396 10.7279 2.20117 10.9648 2.20117C11.2292 2.20117 11.4753 2.22852 11.7031 2.2832C11.9401 2.32878 12.1589 2.40625 12.3594 2.51562C12.5508 2.61589 12.7285 2.73438 12.8926 2.87109C13.0566 3.00781 13.2025 3.16276 13.3301 3.33594C13.4577 3.50911 13.5671 3.69596 13.6582 3.89648C13.7493 4.08789 13.8223 4.29753 13.877 4.52539C13.9316 4.74414 13.9681 4.97201 13.9863 5.20898C14.0046 5.43685 14.0091 5.66927 14 5.90625H9.48828C9.48828 6.15234 9.52474 6.38477 9.59766 6.60352C9.67969 6.82227 9.78451 6.99544 9.91211 7.12305ZM11.8809 3.8418C11.7806 3.73242 11.6439 3.65039 11.4707 3.5957C11.3066 3.5319 11.1198 3.5 10.9102 3.5C10.7734 3.5 10.6458 3.51367 10.5273 3.54102C10.418 3.55924 10.3177 3.59115 10.2266 3.63672C10.1445 3.68229 10.0671 3.73242 9.99414 3.78711C9.92122 3.8418 9.85742 3.9056 9.80273 3.97852C9.74805 4.04232 9.69792 4.11523 9.65234 4.19727C9.61589 4.27018 9.58854 4.3431 9.57031 4.41602C9.54297 4.48893 9.52018 4.56185 9.50195 4.63477C9.49284 4.70768 9.48828 4.77148 9.48828 4.82617H12.2773C12.2591 4.60742 12.2135 4.41602 12.1406 4.25195C12.0677 4.08789 11.9811 3.95117 11.8809 3.8418ZM9.13281 0.697266H12.6328V1.54492H9.13281V0.697266Z"  fill='currentColor'   />
		</symbol>
		<symbol id='s_facebook' viewBox='0 0 7 14'>
			<path d="M4.8125 2.625H7V0H4.8125C4.39323 0 3.99674 0.0820312 3.62305 0.246094C3.24935 0.401042 2.92122 0.619792 2.63867 0.902344C2.36523 1.17578 2.14648 1.49935 1.98242 1.87305C1.82747 2.24674 1.75 2.64323 1.75 3.0625V4.375H0V7H1.75V14H4.375V7H6.5625L7 4.375H4.375V3.0625C4.375 2.94401 4.41602 2.84375 4.49805 2.76172C4.58919 2.67057 4.69401 2.625 4.8125 2.625Z"  fill='currentColor'   />
		</symbol>
		<symbol id='s_instagram' viewBox='0 0 14 14'>
			<path d="M12.6875 0H1.3125C0.947917 0 0.638021 0.127604 0.382812 0.382812C0.127604 0.638021 0 0.947917 0 1.3125V12.6875C0 13.0521 0.127604 13.362 0.382812 13.6172C0.638021 13.8724 0.947917 14 1.3125 14H12.6875C13.0521 14 13.362 13.8724 13.6172 13.6172C13.8724 13.362 14 13.0521 14 12.6875V1.3125C14 0.947917 13.8724 0.638021 13.6172 0.382812C13.362 0.127604 13.0521 0 12.6875 0ZM9.625 2.1875C9.625 2.06901 9.66602 1.96875 9.74805 1.88672C9.83919 1.79557 9.94401 1.75 10.0625 1.75H11.8125C11.931 1.75 12.0312 1.79557 12.1133 1.88672C12.2044 1.96875 12.25 2.06901 12.25 2.1875V3.9375C12.25 4.05599 12.2044 4.16081 12.1133 4.25195C12.0312 4.33398 11.931 4.375 11.8125 4.375H10.0625C9.94401 4.375 9.83919 4.33398 9.74805 4.25195C9.66602 4.16081 9.625 4.05599 9.625 3.9375V2.1875ZM7 4.375C7.72005 4.375 8.33529 4.63021 8.8457 5.14062C9.36523 5.65104 9.625 6.27083 9.625 7C9.625 7.72005 9.36979 8.33984 8.85938 8.85938C8.34896 9.36979 7.72917 9.625 7 9.625C6.27995 9.625 5.66016 9.36979 5.14062 8.85938C4.63021 8.34896 4.375 7.72917 4.375 7C4.375 6.27995 4.63021 5.66471 5.14062 5.1543C5.65104 4.63477 6.27083 4.375 7 4.375ZM12.25 11.8125C12.25 11.931 12.2044 12.0358 12.1133 12.127C12.0312 12.209 11.931 12.25 11.8125 12.25H2.1875C2.06901 12.25 1.96419 12.209 1.87305 12.127C1.79102 12.0358 1.75 11.931 1.75 11.8125V6.125H2.70703C2.67969 6.26172 2.6569 6.40299 2.63867 6.54883C2.62956 6.69466 2.625 6.84505 2.625 7C2.625 7.60156 2.73893 8.17122 2.9668 8.70898C3.19466 9.23763 3.50456 9.70247 3.89648 10.1035C4.29753 10.4954 4.76237 10.8053 5.29102 11.0332C5.82878 11.2611 6.39844 11.375 7 11.375C7.60156 11.375 8.16667 11.2611 8.69531 11.0332C9.23307 10.8053 9.69792 10.4954 10.0898 10.1035C10.4909 9.70247 10.8053 9.23763 11.0332 8.70898C11.2611 8.17122 11.375 7.60156 11.375 7C11.375 6.85417 11.3659 6.70833 11.3477 6.5625C11.3385 6.40755 11.3203 6.26172 11.293 6.125H12.25V11.8125Z"  fill='currentColor'   />
		</symbol>
		<symbol id='s_twitter' viewBox='0 0 14 12'>
			<path d="M14 1.33984C13.7448 1.45833 13.4759 1.55859 13.1934 1.64062C12.9199 1.71354 12.6374 1.76367 12.3457 1.79102C12.6465 1.61784 12.9062 1.39453 13.125 1.12109C13.3438 0.847656 13.5078 0.542318 13.6172 0.205078C13.3346 0.369141 13.0384 0.510417 12.7285 0.628906C12.4277 0.747396 12.1133 0.838542 11.7852 0.902344C11.5299 0.628906 11.2201 0.410156 10.8555 0.246094C10.4909 0.0820312 10.1035 0 9.69336 0C9.30143 0 8.92773 0.077474 8.57227 0.232422C8.22591 0.378255 7.92057 0.583333 7.65625 0.847656C7.40104 1.10286 7.19596 1.40365 7.04102 1.75C6.89518 2.09635 6.82227 2.47005 6.82227 2.87109C6.82227 2.98047 6.82682 3.08984 6.83594 3.19922C6.85417 3.30859 6.8724 3.41797 6.89062 3.52734C6.29818 3.5 5.7194 3.40885 5.1543 3.25391C4.59831 3.09896 4.06966 2.89388 3.56836 2.63867C3.06706 2.37435 2.59766 2.06445 2.16016 1.70898C1.72266 1.35352 1.32617 0.957031 0.970703 0.519531C0.852214 0.729167 0.75651 0.957031 0.683594 1.20312C0.619792 1.44922 0.587891 1.70443 0.587891 1.96875C0.587891 2.46094 0.701823 2.91667 0.929688 3.33594C1.16667 3.75521 1.47656 4.09701 1.85938 4.36133C1.63151 4.35221 1.40365 4.31576 1.17578 4.25195C0.957031 4.18815 0.751953 4.10156 0.560547 3.99219C0.560547 4.0013 0.560547 4.01042 0.560547 4.01953C0.560547 4.01953 0.560547 4.02409 0.560547 4.0332C0.560547 4.72591 0.779297 5.33659 1.2168 5.86523C1.66341 6.39388 2.21484 6.72201 2.87109 6.84961C2.7526 6.88607 2.62956 6.91341 2.50195 6.93164C2.37435 6.94076 2.24219 6.94531 2.10547 6.94531C2.01432 6.94531 1.92318 6.94076 1.83203 6.93164C1.75 6.92253 1.66341 6.91341 1.57227 6.9043C1.75456 7.4694 2.08724 7.9388 2.57031 8.3125C3.0625 8.6862 3.62305 8.88216 4.25195 8.90039C3.75977 9.2832 3.20833 9.58398 2.59766 9.80273C1.99609 10.0215 1.35807 10.1309 0.683594 10.1309C0.565104 10.1309 0.446615 10.1263 0.328125 10.1172C0.21875 10.1081 0.109375 10.099 0 10.0898C0.31901 10.2904 0.651693 10.4727 0.998047 10.6367C1.3444 10.7917 1.69987 10.9238 2.06445 11.0332C2.43815 11.1426 2.82096 11.2292 3.21289 11.293C3.60482 11.3477 4.0013 11.375 4.40234 11.375C5.72396 11.375 6.89062 11.1289 7.90234 10.6367C8.92318 10.1354 9.77995 9.49284 10.4727 8.70898C11.1654 7.92513 11.6895 7.05013 12.0449 6.08398C12.4004 5.10872 12.5781 4.14714 12.5781 3.19922C12.5781 3.13542 12.5736 3.07617 12.5645 3.02148C12.5645 2.95768 12.5645 2.89388 12.5645 2.83008C12.847 2.62956 13.1068 2.40625 13.3438 2.16016C13.5898 1.90495 13.8086 1.63151 14 1.33984Z"  fill='currentColor'   />
		</symbol>
		<symbol id='s_youtube' viewBox='0 0 14 10'>
			<path d="M13.8633 2.11914C13.8633 2.11914 13.8223 1.94141 13.7402 1.58594C13.6582 1.23047 13.5124 0.947917 13.3027 0.738281C13.0384 0.455729 12.7695 0.291667 12.4961 0.246094C12.2318 0.191406 12.0312 0.154948 11.8945 0.136719C11.4115 0.10026 10.8828 0.0729167 10.3086 0.0546875C9.73438 0.0364583 9.20117 0.0227865 8.70898 0.0136719C8.22591 0.00455729 7.82031 0 7.49219 0C7.16406 0 7 0 7 0C7 0 6.83594 0 6.50781 0C6.17969 0 5.76953 0.00455729 5.27734 0.0136719C4.79427 0.0227865 4.26562 0.0364583 3.69141 0.0546875C3.11719 0.0729167 2.58854 0.10026 2.10547 0.136719C1.96875 0.154948 1.76367 0.191406 1.49023 0.246094C1.22591 0.291667 0.961589 0.455729 0.697266 0.738281C0.48763 0.947917 0.341797 1.23047 0.259766 1.58594C0.177734 1.94141 0.136719 2.11914 0.136719 2.11914C0.136719 2.11914 0.113932 2.35612 0.0683594 2.83008C0.0227865 3.30404 0 3.82357 0 4.38867V5.45508C0 6.02018 0.0227865 6.53971 0.0683594 7.01367C0.113932 7.47852 0.136719 7.71094 0.136719 7.71094C0.136719 7.71094 0.177734 7.89323 0.259766 8.25781C0.341797 8.61328 0.48763 8.89583 0.697266 9.10547C0.961589 9.38802 1.24414 9.55208 1.54492 9.59766C1.85482 9.64323 2.08724 9.67969 2.24219 9.70703C2.52474 9.73438 2.93034 9.75716 3.45898 9.77539C3.98763 9.79362 4.51172 9.80729 5.03125 9.81641C5.5599 9.82552 6.02018 9.83464 6.41211 9.84375C6.80404 9.84375 7 9.84375 7 9.84375C7 9.84375 7.16406 9.84375 7.49219 9.84375C7.82031 9.84375 8.22591 9.83919 8.70898 9.83008C9.20117 9.81185 9.73438 9.79362 10.3086 9.77539C10.8828 9.75716 11.416 9.72982 11.9082 9.69336C12.0449 9.68424 12.2454 9.6569 12.5098 9.61133C12.7741 9.55664 13.0384 9.38802 13.3027 9.10547C13.5124 8.89583 13.6582 8.61328 13.7402 8.25781C13.8223 7.89323 13.8633 7.71094 13.8633 7.71094C13.8633 7.71094 13.8861 7.47852 13.9316 7.01367C13.9772 6.53971 14 6.02018 14 5.45508V4.38867C14 3.82357 13.9772 3.30404 13.9316 2.83008C13.8861 2.35612 13.8633 2.11914 13.8633 2.11914ZM5.55078 6.74023V2.80273L9.33789 4.77148L5.55078 6.74023Z"  fill='currentColor'   />
		</symbol>
		<symbol id='search' viewBox='0 0 17 17'>
			<path d="M15.5 13.6094L11.7188 10.3906C11.5208 10.2135 11.3177 10.0833 11.1094 10C10.9115 9.91667 10.7292 9.88021 10.5625 9.89062C11.0104 9.36979 11.3594 8.77604 11.6094 8.10938C11.8698 7.44271 12 6.73958 12 6C12 5.16667 11.8438 4.39062 11.5312 3.67188C11.2188 2.94271 10.7865 2.30729 10.2344 1.76562C9.69271 1.21354 9.05729 0.78125 8.32812 0.46875C7.60938 0.15625 6.83333 0 6 0C5.16667 0 4.38542 0.15625 3.65625 0.46875C2.9375 0.78125 2.30208 1.21354 1.75 1.76562C1.20833 2.30729 0.78125 2.94271 0.46875 3.67188C0.15625 4.39062 0 5.16667 0 6C0 6.83333 0.15625 7.61458 0.46875 8.34375C0.78125 9.0625 1.20833 9.69792 1.75 10.25C2.30208 10.7917 2.9375 11.2188 3.65625 11.5312C4.38542 11.8438 5.16667 12 6 12C6.73958 12 7.44271 11.875 8.10938 11.625C8.77604 11.3646 9.36979 11.0104 9.89062 10.5625C9.88021 10.7292 9.91667 10.9167 10 11.125C10.0833 11.3229 10.2135 11.5208 10.3906 11.7188L13.6094 15.5C13.8906 15.8125 14.224 15.9792 14.6094 16C15.0052 16.0208 15.3438 15.8958 15.625 15.625C15.8958 15.3438 16.0208 15.0104 16 14.625C15.9792 14.2292 15.8125 13.8906 15.5 13.6094ZM6 10C5.44792 10 4.92708 9.89583 4.4375 9.6875C3.95833 9.47917 3.53646 9.19271 3.17188 8.82812C2.80729 8.46354 2.52083 8.04167 2.3125 7.5625C2.10417 7.07292 2 6.55208 2 6C2 5.44792 2.10417 4.93229 2.3125 4.45312C2.52083 3.96354 2.80729 3.53646 3.17188 3.17188C3.53646 2.80729 3.95833 2.52083 4.4375 2.3125C4.92708 2.10417 5.44792 2 6 2C6.55208 2 7.06771 2.10417 7.54688 2.3125C8.03646 2.52083 8.46354 2.80729 8.82812 3.17188C9.19271 3.53646 9.47917 3.96354 9.6875 4.45312C9.89583 4.93229 10 5.44792 10 6C10 6.55208 9.89583 7.07292 9.6875 7.5625C9.47917 8.04167 9.19271 8.46354 8.82812 8.82812C8.46354 9.19271 8.03646 9.47917 7.54688 9.6875C7.06771 9.89583 6.55208 10 6 10Z"  fill='currentColor'   />
		</symbol>
		<symbol id='slider-arrow' viewBox='0 0 15 25'>
			<path d="M0 1.44727L1.59961 0L14.625 12.1875L1.59961 24.375L0 22.9277L11.4258 12.1875L0 1.44727Z"  fill='currentColor'   />
		</symbol>
		<symbol id='logo' viewBox='0 0 35 32'>
			<path d="M8.84314 4.81982L23.0144 27.2987C11.8872 33.1821 1.31953 19.1881 8.84314 4.81982Z"  stroke='currentColor' fill='none' stroke-width="3"  />
			<path d="M20.5316 3.73633L27.6914 28.2072C15.5781 31.1797 9.47526 15.5417 20.5316 3.73633Z"  stroke='currentColor' fill='none' stroke-width="3"  />
			<path d="M33.2245 2.74316V28.7432C20.6416 28.7432 19.1612 11.7565 33.2245 2.74316Z"  stroke='currentColor' fill='none' stroke-width="3"  />
		</symbol>
	</defs>
</svg>